<mxfile host="app.diagrams.net" modified="2023-11-22T17:26:05.205Z" agent="Mozilla/5.0 (Windows NT 10.0; Win64; x64) AppleWebKit/537.36 (KHTML, like Gecko) Chrome/119.0.0.0 Safari/537.36" etag="aEnaoiPUx4HCArmZkGv1" version="22.1.3" type="device">
  <diagram name="Trang-1" id="IiDr1ddLt6QPCpOkkiDG">
    <mxGraphModel dx="3172" dy="2154" grid="1" gridSize="10" guides="1" tooltips="1" connect="1" arrows="1" fold="1" page="1" pageScale="1" pageWidth="827" pageHeight="1169" math="0" shadow="0">
      <root>
        <mxCell id="0" />
        <mxCell id="1" parent="0" />
        <mxCell id="mT-BDktY9lmR7B7DI0jL-49" value="&lt;b style=&quot;border-color: var(--border-color); font-size: 30px;&quot;&gt;CHI NHÁNH&lt;/b&gt;" style="text;html=1;strokeColor=none;fillColor=none;align=center;verticalAlign=middle;whiteSpace=wrap;rounded=0;" parent="1" vertex="1">
          <mxGeometry x="-260" y="390" width="280" height="80" as="geometry" />
        </mxCell>
        <mxCell id="mT-BDktY9lmR7B7DI0jL-50" value="" style="shape=flexArrow;endArrow=classic;html=1;rounded=0;strokeWidth=3;fillColor=#f8cecc;strokeColor=#b85450;endWidth=82;endSize=23.4;width=44;" parent="1" edge="1">
          <mxGeometry width="50" height="50" relative="1" as="geometry">
            <mxPoint x="70" y="240" as="sourcePoint" />
            <mxPoint x="250" y="240" as="targetPoint" />
            <Array as="points">
              <mxPoint x="180" y="240" />
            </Array>
          </mxGeometry>
        </mxCell>
        <mxCell id="mT-BDktY9lmR7B7DI0jL-59" value="" style="shape=table;startSize=0;container=1;collapsible=0;childLayout=tableLayout;rounded=0;align=center;verticalAlign=middle;fontFamily=Helvetica;fontSize=12;fontColor=default;fillColor=none;gradientColor=none;html=1;strokeWidth=3;" parent="1" vertex="1">
          <mxGeometry x="650" y="300" width="270" height="260" as="geometry" />
        </mxCell>
        <mxCell id="mT-BDktY9lmR7B7DI0jL-60" value="" style="shape=tableRow;horizontal=0;startSize=0;swimlaneHead=0;swimlaneBody=0;strokeColor=inherit;top=0;left=0;bottom=0;right=0;collapsible=0;dropTarget=0;fillColor=none;points=[[0,0.5],[1,0.5]];portConstraint=eastwest;rounded=0;align=center;verticalAlign=middle;fontFamily=Helvetica;fontSize=12;fontColor=default;html=1;" parent="mT-BDktY9lmR7B7DI0jL-59" vertex="1">
          <mxGeometry width="270" height="130" as="geometry" />
        </mxCell>
        <mxCell id="mT-BDktY9lmR7B7DI0jL-61" value="&lt;b style=&quot;border-color: var(--border-color); font-size: 30px;&quot;&gt;Tầng 2&lt;/b&gt;" style="shape=partialRectangle;html=1;whiteSpace=wrap;connectable=0;strokeColor=inherit;overflow=hidden;fillColor=none;top=0;left=0;bottom=0;right=0;pointerEvents=1;rounded=0;align=center;verticalAlign=middle;fontFamily=Helvetica;fontSize=12;fontColor=default;" parent="mT-BDktY9lmR7B7DI0jL-60" vertex="1">
          <mxGeometry width="270" height="130" as="geometry">
            <mxRectangle width="270" height="130" as="alternateBounds" />
          </mxGeometry>
        </mxCell>
        <mxCell id="mT-BDktY9lmR7B7DI0jL-62" value="" style="shape=tableRow;horizontal=0;startSize=0;swimlaneHead=0;swimlaneBody=0;strokeColor=inherit;top=0;left=0;bottom=0;right=0;collapsible=0;dropTarget=0;fillColor=none;points=[[0,0.5],[1,0.5]];portConstraint=eastwest;rounded=0;align=center;verticalAlign=middle;fontFamily=Helvetica;fontSize=12;fontColor=default;html=1;" parent="mT-BDktY9lmR7B7DI0jL-59" vertex="1">
          <mxGeometry y="130" width="270" height="130" as="geometry" />
        </mxCell>
        <mxCell id="mT-BDktY9lmR7B7DI0jL-63" value="&lt;span style=&quot;border-color: var(--border-color); font-size: 30px;&quot;&gt;Developer&lt;/span&gt;" style="shape=partialRectangle;html=1;whiteSpace=wrap;connectable=0;strokeColor=inherit;overflow=hidden;fillColor=none;top=0;left=0;bottom=0;right=0;pointerEvents=1;rounded=0;align=center;verticalAlign=middle;fontFamily=Helvetica;fontSize=12;fontColor=default;" parent="mT-BDktY9lmR7B7DI0jL-62" vertex="1">
          <mxGeometry width="270" height="130" as="geometry">
            <mxRectangle width="270" height="130" as="alternateBounds" />
          </mxGeometry>
        </mxCell>
        <mxCell id="mT-BDktY9lmR7B7DI0jL-71" value="" style="shape=table;startSize=0;container=1;collapsible=0;childLayout=tableLayout;rounded=0;align=center;verticalAlign=middle;fontFamily=Helvetica;fontSize=12;fontColor=default;fillColor=none;gradientColor=none;html=1;strokeWidth=3;" parent="1" vertex="1">
          <mxGeometry x="650" y="-70" width="270" height="330" as="geometry" />
        </mxCell>
        <mxCell id="mT-BDktY9lmR7B7DI0jL-74" value="" style="shape=tableRow;horizontal=0;startSize=0;swimlaneHead=0;swimlaneBody=0;strokeColor=inherit;top=0;left=0;bottom=0;right=0;collapsible=0;dropTarget=0;fillColor=none;points=[[0,0.5],[1,0.5]];portConstraint=eastwest;rounded=0;align=center;verticalAlign=middle;fontFamily=Helvetica;fontSize=12;fontColor=default;html=1;" parent="mT-BDktY9lmR7B7DI0jL-71" vertex="1">
          <mxGeometry width="270" height="118" as="geometry" />
        </mxCell>
        <mxCell id="mT-BDktY9lmR7B7DI0jL-75" value="&lt;span style=&quot;border-color: var(--border-color); font-size: 30px;&quot;&gt;Data Center&lt;/span&gt;" style="shape=partialRectangle;html=1;whiteSpace=wrap;connectable=0;strokeColor=inherit;overflow=hidden;fillColor=none;top=0;left=0;bottom=0;right=0;pointerEvents=1;rounded=0;align=center;verticalAlign=middle;fontFamily=Helvetica;fontSize=12;fontColor=default;" parent="mT-BDktY9lmR7B7DI0jL-74" vertex="1">
          <mxGeometry width="270" height="118" as="geometry">
            <mxRectangle width="270" height="118" as="alternateBounds" />
          </mxGeometry>
        </mxCell>
        <mxCell id="mT-BDktY9lmR7B7DI0jL-72" value="" style="shape=tableRow;horizontal=0;startSize=0;swimlaneHead=0;swimlaneBody=0;strokeColor=inherit;top=0;left=0;bottom=0;right=0;collapsible=0;dropTarget=0;fillColor=none;points=[[0,0.5],[1,0.5]];portConstraint=eastwest;rounded=0;align=center;verticalAlign=middle;fontFamily=Helvetica;fontSize=12;fontColor=default;html=1;" parent="mT-BDktY9lmR7B7DI0jL-71" vertex="1">
          <mxGeometry y="118" width="270" height="104" as="geometry" />
        </mxCell>
        <mxCell id="mT-BDktY9lmR7B7DI0jL-73" value="&lt;b style=&quot;border-color: var(--border-color); font-size: 30px;&quot;&gt;Tầng 1&lt;/b&gt;" style="shape=partialRectangle;html=1;whiteSpace=wrap;connectable=0;strokeColor=inherit;overflow=hidden;fillColor=none;top=0;left=0;bottom=0;right=0;pointerEvents=1;rounded=0;align=center;verticalAlign=middle;fontFamily=Helvetica;fontSize=12;fontColor=default;" parent="mT-BDktY9lmR7B7DI0jL-72" vertex="1">
          <mxGeometry width="270" height="104" as="geometry">
            <mxRectangle width="270" height="104" as="alternateBounds" />
          </mxGeometry>
        </mxCell>
        <mxCell id="t5FXCm7MGCudknjl_LxN-10" value="" style="shape=tableRow;horizontal=0;startSize=0;swimlaneHead=0;swimlaneBody=0;strokeColor=inherit;top=0;left=0;bottom=0;right=0;collapsible=0;dropTarget=0;fillColor=none;points=[[0,0.5],[1,0.5]];portConstraint=eastwest;" vertex="1" parent="mT-BDktY9lmR7B7DI0jL-71">
          <mxGeometry y="222" width="270" height="108" as="geometry" />
        </mxCell>
        <mxCell id="t5FXCm7MGCudknjl_LxN-11" value="&lt;br&gt;&lt;span style=&quot;font-size: 30px;&quot;&gt;IT&lt;/span&gt;" style="shape=partialRectangle;html=1;whiteSpace=wrap;connectable=0;strokeColor=inherit;overflow=hidden;fillColor=none;top=0;left=0;bottom=0;right=0;pointerEvents=1;" vertex="1" parent="t5FXCm7MGCudknjl_LxN-10">
          <mxGeometry width="270" height="108" as="geometry">
            <mxRectangle width="270" height="108" as="alternateBounds" />
          </mxGeometry>
        </mxCell>
        <mxCell id="mT-BDktY9lmR7B7DI0jL-117" value="" style="endArrow=none;html=1;rounded=0;fontFamily=Helvetica;fontSize=12;fontColor=default;strokeColor=#FFFFFF;" parent="1" edge="1">
          <mxGeometry width="50" height="50" relative="1" as="geometry">
            <mxPoint x="-290" y="320" as="sourcePoint" />
            <mxPoint x="-280" y="270" as="targetPoint" />
          </mxGeometry>
        </mxCell>
        <mxCell id="mT-BDktY9lmR7B7DI0jL-119" value="" style="endArrow=none;html=1;rounded=0;fontFamily=Helvetica;fontSize=12;fontColor=default;strokeColor=#FFFFFF;" parent="1" edge="1">
          <mxGeometry width="50" height="50" relative="1" as="geometry">
            <mxPoint x="770" y="-30" as="sourcePoint" />
            <mxPoint x="840" y="-30" as="targetPoint" />
          </mxGeometry>
        </mxCell>
        <mxCell id="mT-BDktY9lmR7B7DI0jL-120" value="" style="endArrow=none;html=1;rounded=0;fontFamily=Helvetica;fontSize=12;fontColor=default;strokeColor=#FFFFFF;" parent="1" edge="1">
          <mxGeometry width="50" height="50" relative="1" as="geometry">
            <mxPoint x="840" y="590" as="sourcePoint" />
            <mxPoint x="770" y="600" as="targetPoint" />
          </mxGeometry>
        </mxCell>
        <mxCell id="mT-BDktY9lmR7B7DI0jL-128" value="" style="shape=table;startSize=0;container=1;collapsible=0;childLayout=tableLayout;rounded=0;align=center;verticalAlign=middle;fontFamily=Helvetica;fontSize=12;fontColor=default;fillColor=none;gradientColor=none;html=1;strokeWidth=3;" parent="1" vertex="1">
          <mxGeometry x="289" y="130" width="250" height="220" as="geometry" />
        </mxCell>
        <mxCell id="mT-BDktY9lmR7B7DI0jL-131" value="" style="shape=tableRow;horizontal=0;startSize=0;swimlaneHead=0;swimlaneBody=0;strokeColor=inherit;top=0;left=0;bottom=0;right=0;collapsible=0;dropTarget=0;fillColor=none;points=[[0,0.5],[1,0.5]];portConstraint=eastwest;rounded=0;align=center;verticalAlign=middle;fontFamily=Helvetica;fontSize=12;fontColor=default;html=1;strokeWidth=3;" parent="mT-BDktY9lmR7B7DI0jL-128" vertex="1">
          <mxGeometry width="250" height="110" as="geometry" />
        </mxCell>
        <mxCell id="mT-BDktY9lmR7B7DI0jL-132" value="&lt;b style=&quot;border-color: var(--border-color); font-size: 30px;&quot;&gt;Tầng 1&lt;/b&gt;" style="shape=partialRectangle;html=1;whiteSpace=wrap;connectable=0;strokeColor=inherit;overflow=hidden;fillColor=none;top=0;left=0;bottom=0;right=0;pointerEvents=1;rounded=0;align=center;verticalAlign=middle;fontFamily=Helvetica;fontSize=12;fontColor=default;strokeWidth=3;" parent="mT-BDktY9lmR7B7DI0jL-131" vertex="1">
          <mxGeometry width="250" height="110" as="geometry">
            <mxRectangle width="250" height="110" as="alternateBounds" />
          </mxGeometry>
        </mxCell>
        <mxCell id="mT-BDktY9lmR7B7DI0jL-134" value="" style="shape=tableRow;horizontal=0;startSize=0;swimlaneHead=0;swimlaneBody=0;strokeColor=inherit;top=0;left=0;bottom=0;right=0;collapsible=0;dropTarget=0;fillColor=none;points=[[0,0.5],[1,0.5]];portConstraint=eastwest;rounded=0;align=center;verticalAlign=middle;fontFamily=Helvetica;fontSize=12;fontColor=default;html=1;" parent="mT-BDktY9lmR7B7DI0jL-128" vertex="1">
          <mxGeometry y="110" width="250" height="110" as="geometry" />
        </mxCell>
        <mxCell id="mT-BDktY9lmR7B7DI0jL-135" value="&lt;b style=&quot;border-color: var(--border-color); font-size: 30px;&quot;&gt;Tầng 2&lt;/b&gt;" style="shape=partialRectangle;html=1;whiteSpace=wrap;connectable=0;strokeColor=inherit;overflow=hidden;fillColor=none;top=0;left=0;bottom=0;right=0;pointerEvents=1;rounded=0;align=center;verticalAlign=middle;fontFamily=Helvetica;fontSize=12;fontColor=default;" parent="mT-BDktY9lmR7B7DI0jL-134" vertex="1">
          <mxGeometry width="250" height="110" as="geometry">
            <mxRectangle width="250" height="110" as="alternateBounds" />
          </mxGeometry>
        </mxCell>
        <mxCell id="t5FXCm7MGCudknjl_LxN-1" value="" style="image;points=[];aspect=fixed;html=1;align=center;shadow=0;dashed=0;image=img/lib/allied_telesis/buildings/Large_Building.svg;" vertex="1" parent="1">
          <mxGeometry x="-240" y="80" width="270" height="270" as="geometry" />
        </mxCell>
      </root>
    </mxGraphModel>
  </diagram>
</mxfile>
